<svg width="214" height="127" viewBox="0 0 214 127" fill="none" xmlns="http://www.w3.org/2000/svg">
<rect width="214" height="127" fill="#C31433"/>
<g clip-path="url(#clip0)">
<circle cx="20.5" cy="101.5" r="45.5" fill="#9F0923"/>
<path d="M30.7266 104.307L29.2185 103.176L27.4152 101.832C27.0873 101.586 27.0873 101.094 27.4152 100.848L29.2185 99.504L30.7266 98.3729L34.9725 95.1926L22.4808 85.8484C20.9726 84.7172 18.9234 84.7172 17.4152 85.8484L10.1038 91.3401C8.8743 92.2582 8.16938 93.668 8.16938 95.209C8.16938 96.3073 8.53004 97.3401 9.18577 98.1762L8.03824 99.0286C7.33332 99.5532 6.85791 100.373 6.82513 101.258C6.79234 102.193 7.21857 103.061 7.95627 103.602L9.18577 104.52C8.53004 105.356 8.16938 106.389 8.16938 107.488C8.16938 109.029 8.8743 110.438 10.1038 111.356L17.4316 116.832C18.1857 117.389 19.071 117.668 19.9726 117.668C20.8578 117.668 21.7595 117.389 22.5136 116.832L35.0053 107.488L30.7266 104.307ZM11.2841 92.9139L18.612 87.4385C19.3988 86.8484 20.5136 86.8484 21.3005 87.4385L31.6611 95.1926L29.2021 97.0286L21.3824 91.1762C20.9562 90.8647 20.4644 90.7008 19.9562 90.7008C19.448 90.7008 18.9562 90.8647 18.53 91.1762L10.7759 96.9795C10.3825 96.4876 10.153 95.8647 10.153 95.1926C10.153 94.2909 10.5628 93.4549 11.2841 92.9139ZM21.3005 115.242C20.5136 115.832 19.3988 115.832 18.612 115.242L11.2841 109.766C10.5628 109.225 10.1366 108.389 10.1366 107.488C10.1366 106.832 10.3661 106.209 10.7595 105.701L18.5136 111.504C19.3497 112.127 20.53 112.127 21.366 111.504L29.2021 105.635L31.6611 107.471L21.3005 115.242Z" fill="white"/>
<path d="M25.9889 103.143L27.6774 104.406L20.3168 109.914C20.2512 109.963 20.1693 109.996 20.0709 109.996V92.6844C20.1529 92.6844 20.2349 92.7008 20.3168 92.7664L27.6774 98.2745L25.9889 99.5368C24.7758 100.438 24.7758 102.242 25.9889 103.143Z" fill="url(#paint0_linear)"/>
<path d="M55.729 101.5C55.729 120.956 39.9564 136.729 20.5 136.729C1.04364 136.729 -14.7289 120.956 -14.7289 101.5C-14.7289 82.0436 1.04364 66.2711 20.5 66.2711C39.9564 66.2711 55.729 82.0436 55.729 101.5Z" stroke="#C31433" stroke-width="3"/>
</g>
<defs>
<linearGradient id="paint0_linear" x1="32.6188" y1="100.566" x2="20.6106" y2="100.566" gradientUnits="userSpaceOnUse">
<stop stop-color="#C31433"/>
<stop offset="1" stop-color="#C31433" stop-opacity="0"/>
</linearGradient>
<clipPath id="clip0">
<rect width="66" height="71" fill="white" transform="translate(0 56)"/>
</clipPath>
</defs>
</svg>
