<svg width="36" height="36" viewBox="0 0 36 36" fill="none" xmlns="http://www.w3.org/2000/svg">
<rect width="36" height="36" rx="18" fill="url(#paint0_linear)"/>
<path d="M18.0101 9C18.7157 9.0078 19.4184 9.09062 20.1077 9.24652C20.2543 9.2797 20.3871 9.35848 20.4874 9.47186C20.5877 9.58523 20.6506 9.72754 20.6672 9.8789L20.8306 11.3668C20.8537 11.5766 20.925 11.7779 21.0389 11.9546C21.1527 12.1314 21.3059 12.2785 21.4861 12.3843C21.6663 12.4901 21.8685 12.5515 22.0764 12.5637C22.2843 12.5758 22.4921 12.5383 22.6831 12.4542L24.0299 11.855C24.1667 11.7939 24.3187 11.7774 24.4651 11.8078C24.6115 11.8382 24.745 11.9139 24.847 12.0245C25.8198 13.0779 26.5443 14.3412 26.9658 15.7194C27.01 15.8642 27.0087 16.0194 26.962 16.1634C26.9153 16.3074 26.8256 16.4332 26.7053 16.5232L25.5113 17.4158C25.3434 17.5408 25.2069 17.7041 25.1128 17.8925C25.0187 18.0809 24.9697 18.2891 24.9697 18.5003C24.9697 18.7114 25.0187 18.9196 25.1128 19.108C25.2069 19.2964 25.3434 19.4597 25.5113 19.5848L26.7063 20.4763C26.8269 20.5663 26.917 20.6922 26.9638 20.8364C27.0107 20.9806 27.0121 21.1361 26.9677 21.2812C26.546 22.6593 25.8216 23.9225 24.849 24.976C24.7471 25.0864 24.6141 25.162 24.4681 25.1926C24.3221 25.2231 24.1704 25.207 24.0338 25.1465L22.6812 24.5454C22.4904 24.4606 22.2827 24.4225 22.0748 24.4343C21.8668 24.446 21.6645 24.5072 21.4842 24.6129C21.3039 24.7185 21.1508 24.8658 21.037 25.0426C20.9233 25.2195 20.8523 25.421 20.8297 25.6308L20.6672 27.1177C20.6508 27.2674 20.5892 27.4084 20.4908 27.5212C20.3923 27.6341 20.2619 27.7133 20.1173 27.7482C18.7249 28.0839 17.2742 28.0839 15.8817 27.7482C15.7371 27.7133 15.6067 27.6341 15.5083 27.5212C15.4098 27.4084 15.3482 27.2674 15.3318 27.1177L15.1703 25.6328C15.1468 25.4235 15.0751 25.2227 14.9611 25.0465C14.847 24.8704 14.6938 24.7238 14.5137 24.6186C14.3336 24.5134 14.1317 24.4525 13.9242 24.4408C13.7167 24.4291 13.5093 24.4669 13.3188 24.5512L11.9672 25.1514C11.8305 25.2121 11.6785 25.2283 11.5323 25.1978C11.3862 25.1672 11.2529 25.0915 11.151 24.9809C10.1779 23.9263 9.45346 22.6616 9.03227 21.2821C8.98795 21.1371 8.98931 20.9816 9.03617 20.8374C9.08304 20.6931 9.17306 20.5673 9.29375 20.4773L10.4887 19.5848C10.6568 19.4599 10.7935 19.2966 10.8877 19.1082C10.9819 18.9198 11.031 18.7115 11.031 18.5003C11.031 18.289 10.9819 18.0808 10.8877 17.8923C10.7935 17.7039 10.6568 17.5407 10.4887 17.4158L9.29375 16.5252C9.17324 16.4351 9.0834 16.3092 9.03671 16.1649C8.99003 16.0207 8.98881 15.8653 9.03323 15.7203C9.45479 14.3422 10.1792 13.0789 11.152 12.0255C11.2541 11.9149 11.3875 11.8392 11.5339 11.8088C11.6803 11.7784 11.8324 11.7949 11.9691 11.8559L13.315 12.4552C13.5063 12.5392 13.7144 12.5766 13.9226 12.5644C14.1308 12.5521 14.3332 12.4906 14.5136 12.3846C14.6941 12.2787 14.8475 12.1313 14.9615 11.9544C15.0756 11.7774 15.1471 11.5758 15.1703 11.3658L15.3338 9.8789C15.3503 9.72724 15.4132 9.58462 15.5137 9.47103C15.6142 9.35745 15.7473 9.2786 15.8942 9.24555C16.5835 9.09062 17.2881 9.00877 18.0101 9ZM17.9986 15.5771C17.2337 15.5771 16.5001 15.8851 15.9593 16.4333C15.4184 16.9815 15.1146 17.725 15.1146 18.5003C15.1146 19.2755 15.4184 20.0191 15.9593 20.5672C16.5001 21.1154 17.2337 21.4234 17.9986 21.4234C18.7634 21.4234 19.497 21.1154 20.0378 20.5672C20.5787 20.0191 20.8825 19.2755 20.8825 18.5003C20.8825 17.725 20.5787 16.9815 20.0378 16.4333C19.497 15.8851 18.7634 15.5771 17.9986 15.5771Z" fill="white"/>
<defs>
<linearGradient id="paint0_linear" x1="5.31818" y1="6.13636" x2="28.2273" y2="47.0455" gradientUnits="userSpaceOnUse">
<stop stop-color="#BE1433"/>
<stop offset="1" stop-color="#5D0F35"/>
</linearGradient>
</defs>
</svg>
