<svg width="66" height="71" viewBox="0 0 66 71" fill="none" xmlns="http://www.w3.org/2000/svg">
<g clip-path="url(#clip0)">
<circle cx="20.5" cy="45.5" r="45.5" fill="#9F0923"/>
<path d="M30.7266 48.3073L29.2185 47.1761L27.4152 45.8319C27.0873 45.586 27.0873 45.0942 27.4152 44.8483L29.2185 43.504L30.7266 42.3729L34.9725 39.1926L22.4808 29.8484C20.9726 28.7172 18.9234 28.7172 17.4152 29.8484L10.1038 35.3401C8.8743 36.2582 8.16938 37.668 8.16938 39.209C8.16938 40.3073 8.53004 41.3401 9.18577 42.1762L8.03824 43.0286C7.33332 43.5532 6.85791 44.3729 6.82513 45.2581C6.79234 46.1925 7.21857 47.0614 7.95627 47.6024L9.18577 48.5204C8.53004 49.3565 8.16938 50.3892 8.16938 51.4876C8.16938 53.0286 8.8743 54.4384 10.1038 55.3564L17.4316 60.8318C18.1857 61.3892 19.071 61.6679 19.9726 61.6679C20.8578 61.6679 21.7595 61.3892 22.5136 60.8318L35.0053 51.4876L30.7266 48.3073ZM11.2841 36.9139L18.612 31.4385C19.3988 30.8484 20.5136 30.8484 21.3005 31.4385L31.6611 39.1926L29.2021 41.0286L21.3824 35.1762C20.9562 34.8647 20.4644 34.7008 19.9562 34.7008C19.448 34.7008 18.9562 34.8647 18.53 35.1762L10.7759 40.9795C10.3825 40.4876 10.153 39.8647 10.153 39.1926C10.153 38.2909 10.5628 37.4549 11.2841 36.9139ZM21.3005 59.2417C20.5136 59.8318 19.3988 59.8318 18.612 59.2417L11.2841 53.7663C10.5628 53.2253 10.1366 52.3892 10.1366 51.4876C10.1366 50.8319 10.3661 50.2089 10.7595 49.7007L18.5136 55.504C19.3497 56.1269 20.53 56.1269 21.366 55.504L29.2021 49.6352L31.6611 51.4712L21.3005 59.2417Z" fill="white"/>
<path d="M25.9889 47.1434L27.6774 48.4057L20.3168 53.9138C20.2512 53.963 20.1693 53.9958 20.0709 53.9958V36.6844C20.1529 36.6844 20.2349 36.7008 20.3168 36.7664L27.6774 42.2746L25.9889 43.5368C24.7758 44.4385 24.7758 46.2417 25.9889 47.1434Z" fill="url(#paint0_linear)"/>
<path d="M55.729 45.5C55.729 64.9564 39.9564 80.7289 20.5 80.7289C1.04364 80.7289 -14.7289 64.9564 -14.7289 45.5C-14.7289 26.0436 1.04364 10.2711 20.5 10.2711C39.9564 10.2711 55.729 26.0436 55.729 45.5Z" stroke="#C31433" stroke-width="3"/>
</g>
<defs>
<linearGradient id="paint0_linear" x1="32.6188" y1="44.5662" x2="20.6106" y2="44.5662" gradientUnits="userSpaceOnUse">
<stop stop-color="#C31433"/>
<stop offset="1" stop-color="#C31433" stop-opacity="0"/>
</linearGradient>
<clipPath id="clip0">
<rect width="66" height="71" fill="white"/>
</clipPath>
</defs>
</svg>
