<svg width="42" height="48" viewBox="0 0 42 48" fill="none" xmlns="http://www.w3.org/2000/svg">
<path d="M35.1219 28.3688L32.9059 26.7068L30.2563 24.7317C29.7745 24.3703 29.7745 23.6477 30.2563 23.2864L32.9059 21.3113L35.1219 19.6492L41.3605 14.9763L23.006 1.24652C20.7899 -0.415506 17.779 -0.415506 15.563 1.24652L4.82005 9.31577C3.01351 10.6647 1.97775 12.7362 1.97775 15.0004C1.97775 16.6142 2.50767 18.1317 3.47116 19.3602L1.78505 20.6127C0.749296 21.3835 0.0507654 22.5879 0.00259075 23.8886C-0.0455839 25.2616 0.580685 26.5382 1.66461 27.3331L3.47116 28.682C2.50767 29.9104 1.97775 31.4279 1.97775 33.0418C1.97775 35.306 3.01351 37.3775 4.82005 38.7264L15.5871 46.7715C16.6951 47.5905 17.9958 48 19.3206 48C20.6213 48 21.9461 47.5905 23.0542 46.7715L41.4087 33.0418L35.1219 28.3688ZM6.55434 11.6282L17.3214 3.58299C18.4776 2.71584 20.1155 2.71584 21.2717 3.58299L36.4949 14.9763L32.8818 17.6741L21.3921 9.0749C20.7659 8.61724 20.0432 8.37637 19.2965 8.37637C18.5498 8.37637 17.8272 8.61724 17.2009 9.0749L5.80763 17.6018C5.22954 16.8792 4.89232 15.9639 4.89232 14.9763C4.89232 13.6515 5.4945 12.423 6.55434 11.6282ZM21.2717 44.4351C20.1155 45.3022 18.4776 45.3022 17.3214 44.4351L6.55434 36.3899C5.4945 35.595 4.86823 34.3666 4.86823 33.0418C4.86823 32.0783 5.20545 31.163 5.78355 30.4163L17.1768 38.9432C18.4053 39.8585 20.1396 39.8585 21.368 38.9432L32.8818 30.3199L36.4949 33.0177L21.2717 44.4351Z" fill="url(#paint0_linear)"/>
<path d="M28.1607 26.6585L30.6417 28.5133L19.8265 36.6066C19.7301 36.6789 19.6097 36.727 19.4651 36.727V11.2908C19.5856 11.2908 19.706 11.3149 19.8265 11.4113L30.6417 19.5046L28.1607 21.3593C26.3782 22.6841 26.3782 25.3337 28.1607 26.6585Z" fill="url(#paint1_radial)"/>
<defs>
<linearGradient id="paint0_linear" x1="43.0143" y1="22.9311" x2="-24.2447" y2="25.9884" gradientUnits="userSpaceOnUse">
<stop offset="0.1268" stop-color="#C31432"/>
<stop offset="0.232" stop-color="#BC1432"/>
<stop offset="0.3879" stop-color="#A81233"/>
<stop offset="0.5753" stop-color="#871134"/>
<stop offset="0.787" stop-color="#590E35"/>
<stop offset="1" stop-color="#240B36"/>
</linearGradient>
<radialGradient id="paint1_radial" cx="0" cy="0" r="1" gradientUnits="userSpaceOnUse" gradientTransform="translate(30.1391 23.8613) scale(16.4479)">
<stop offset="0.1582" stop-color="#240B36"/>
<stop offset="0.2027" stop-color="#330C36" stop-opacity="0.9379"/>
<stop offset="0.3673" stop-color="#660F34" stop-opacity="0.7076"/>
<stop offset="0.5221" stop-color="#8E1133" stop-opacity="0.4911"/>
<stop offset="0.6627" stop-color="#AB1333" stop-opacity="0.2945"/>
<stop offset="0.7844" stop-color="#BD1432" stop-opacity="0.1243"/>
<stop offset="0.8732" stop-color="#C31432" stop-opacity="0"/>
</radialGradient>
</defs>
</svg>
