<svg width="116" height="37" viewBox="0 0 116 37" fill="none" xmlns="http://www.w3.org/2000/svg">
<path d="M47.9751 14.3181C47.5512 14.226 47.1089 14.1891 46.5928 14.1891C45.8556 14.1891 45.229 14.2997 44.7314 14.5024C44.2154 14.7236 43.8099 15.0553 43.4782 15.516C43.1649 15.9768 42.9253 16.585 42.7963 17.3222C42.6672 18.0594 42.5935 18.9809 42.5935 20.0682C42.5935 21.1187 42.6672 22.0034 42.7963 22.7406C42.9253 23.4778 43.1464 24.086 43.4597 24.5467C43.773 25.0075 44.1785 25.3576 44.6945 25.5788C45.2106 25.7999 45.8372 25.9105 46.5928 25.9105C47.1457 25.9105 47.6249 25.8737 48.0119 25.7815C48.399 25.6894 48.786 25.5788 49.173 25.4129L49.7259 26.9426C49.3205 27.1638 48.786 27.3296 48.1409 27.4955C47.4959 27.6429 46.7771 27.7351 46.0031 27.7351C44.842 27.7351 43.8468 27.5877 43.0174 27.3112C42.1881 27.0348 41.4877 26.574 40.9533 25.9658C40.4004 25.3392 39.9949 24.5467 39.7369 23.5699C39.4789 22.5931 39.3499 21.4136 39.3499 20.0498C39.3499 17.3222 39.8843 15.3502 40.9348 14.1338C42.0038 12.9174 43.6809 12.3092 46.0031 12.3092C46.7955 12.3092 47.5143 12.383 48.1409 12.5488C48.7676 12.6963 49.302 12.8806 49.7259 13.1017L49.1546 14.6683C48.7676 14.5208 48.3805 14.4103 47.9751 14.3181Z" fill="#240B36"/>
<path d="M52.3429 7.16729C52.6563 6.85398 53.0986 6.68811 53.6699 6.68811C54.2044 6.68811 54.6467 6.85398 54.9784 7.16729C55.3102 7.4806 55.476 7.92292 55.476 8.49424C55.476 9.02871 55.3102 9.47103 54.9784 9.78434C54.6467 10.0976 54.2228 10.2635 53.6699 10.2635C53.117 10.2635 52.6747 10.0976 52.3429 9.78434C52.0296 9.47103 51.8638 9.02871 51.8638 8.49424C51.8638 7.92292 52.0296 7.4806 52.3429 7.16729ZM55.2364 12.7331V27.3665H52.0849V12.7331H55.2364Z" fill="#240B36"/>
<path d="M57.2638 12.9727L59.6044 12.6226L61.2815 9.06558H62.6085V12.7516H66.4788V14.3734H62.6269V23.1461C62.6269 24.1966 62.7743 24.9153 63.0877 25.3392C63.401 25.7631 63.8986 25.9843 64.5989 25.9843C65.0044 25.9843 65.3545 25.9474 65.6678 25.8553C65.9812 25.7631 66.2576 25.6525 66.5156 25.5235L67.0685 26.8505C66.6815 27.1269 66.2023 27.3297 65.6126 27.4955C65.0412 27.643 64.3962 27.7351 63.6958 27.7351C62.2583 27.7351 61.2078 27.4034 60.5075 26.7399C59.8071 26.0764 59.457 24.9706 59.457 23.4594V14.3918H57.2454V12.9727H57.2638Z" fill="#240B36"/>
<path d="M70.8466 12.6041C71.7497 12.4198 72.6712 12.3277 73.5927 12.3277C75.6199 12.3277 77.0943 12.7516 78.0158 13.5809C78.9373 14.4103 79.3981 15.6635 79.3981 17.3222V26.8873C78.6056 27.1638 77.721 27.3665 76.7257 27.5324C75.7305 27.6798 74.68 27.772 73.5742 27.772C72.4684 27.772 71.5469 27.6798 70.8097 27.5139C70.0725 27.3481 69.4643 27.0716 69.022 26.703C68.5613 26.3344 68.248 25.8552 68.0452 25.2655C67.8425 24.6757 67.7319 23.9754 67.7319 23.1645C67.7319 21.5611 68.2295 20.4 69.2248 19.6812C70.22 18.9624 71.8971 18.5938 74.2561 18.5938H76.2466V17.488C76.2466 16.2901 75.9885 15.4423 75.4541 14.9447C74.9196 14.4471 73.9613 14.2075 72.579 14.2075C71.9524 14.2075 71.3442 14.2812 70.7176 14.4103C70.091 14.5393 69.5196 14.7051 69.022 14.9079L68.506 13.3782C69.151 13.0464 69.9435 12.7884 70.8466 12.6041ZM71.6575 20.6949C71.0862 21.1556 70.7913 21.9481 70.7913 23.1092C70.7913 24.3071 71.0309 25.1365 71.5101 25.5788C71.9892 26.0395 72.7633 26.2607 73.7954 26.2607C74.2193 26.2607 74.6616 26.2238 75.1039 26.1686C75.5462 26.1133 75.9333 26.0395 76.2281 25.929V19.9945H74.3114C73.1319 20.013 72.2473 20.2341 71.6575 20.6949Z" fill="#240B36"/>
<path d="M90.0876 12.4567C90.622 12.5304 91.1749 12.641 91.7462 12.77V6.22736H94.8978V26.7952C93.9394 27.1269 92.9626 27.3665 91.9674 27.5139C90.9906 27.6614 89.9033 27.7535 88.7422 27.7535C87.5442 27.7535 86.5121 27.6061 85.6644 27.3296C84.8166 27.0532 84.1163 26.5924 83.5449 25.9842C82.992 25.3576 82.5682 24.5651 82.3101 23.5884C82.0521 22.6116 81.9231 21.4321 81.9231 20.0682C81.9231 18.686 82.0521 17.488 82.3101 16.5113C82.5682 15.5345 82.9736 14.742 83.5265 14.1154C84.0794 13.4888 84.7797 13.0464 85.6091 12.7516C86.4384 12.4567 87.4337 12.3092 88.5763 12.3092C89.0555 12.3277 89.5531 12.3645 90.0876 12.4567ZM90.5299 26.1133C90.9906 26.0395 91.3961 25.9658 91.7462 25.8737V14.2444C91.3961 14.1338 90.9906 14.0416 90.5483 13.9864C90.0876 13.9311 89.6637 13.8942 89.2582 13.8942C88.521 13.8942 87.8944 14.0048 87.3968 14.2075C86.8808 14.4102 86.4569 14.742 86.1436 15.2212C85.8118 15.7003 85.5722 16.327 85.4248 17.1194C85.2773 17.9119 85.2036 18.8887 85.2036 20.0682C85.2036 21.2478 85.2773 22.2245 85.4248 23.017C85.5722 23.7911 85.8118 24.4361 86.1436 24.8969C86.4753 25.3761 86.8992 25.7078 87.3968 25.9105C87.9128 26.1133 88.5394 26.2238 89.2582 26.2238C89.6452 26.2054 90.0691 26.187 90.5299 26.1133Z" fill="#240B36"/>
<path d="M101.164 23.0907C101.348 23.7726 101.625 24.3255 101.993 24.7494C102.343 25.1733 102.804 25.4682 103.32 25.6525C103.855 25.8184 104.481 25.9105 105.182 25.9105C105.974 25.9105 106.674 25.8368 107.264 25.6894C107.854 25.5419 108.444 25.3576 108.997 25.1549L109.605 26.6846C108.978 27.0163 108.259 27.2743 107.393 27.4586C106.545 27.6429 105.624 27.7351 104.647 27.7351C103.375 27.7351 102.288 27.5876 101.385 27.2928C100.482 26.9979 99.7632 26.5556 99.1919 25.929C98.639 25.3023 98.2151 24.5098 97.9571 23.5331C97.6991 22.5563 97.5701 21.3768 97.5701 20.0129C97.5701 17.3406 98.0861 15.387 99.1182 14.1522C100.15 12.9174 101.772 12.2908 104.002 12.2908C105.126 12.2908 106.085 12.4382 106.877 12.7147C107.67 12.9911 108.315 13.4519 108.812 14.0969C109.31 14.742 109.679 15.5713 109.9 16.6403C110.121 17.6908 110.231 18.9809 110.231 20.5105H100.777C100.851 21.5611 100.961 22.4088 101.164 23.0907ZM101.698 14.9263C101.182 15.7372 100.887 17.0826 100.814 18.9624H107.043C107.043 17.101 106.822 15.7741 106.361 14.9447C105.9 14.1154 105.126 13.7099 104.021 13.7099C102.988 13.7283 102.214 14.1154 101.698 14.9263Z" fill="#240B36"/>
<path d="M116 6.20892V27.3665H112.848V6.20892H116Z" fill="#240B36"/>
<path d="M26.8728 21.7638L25.1773 20.4921L23.15 18.9809C22.7814 18.7044 22.7814 18.1515 23.15 17.8751L25.1773 16.3638L26.8728 15.0921L31.6462 11.5167L17.6026 1.01167C15.907 -0.259994 13.6033 -0.259994 11.9077 1.01167L3.68797 7.1857C2.30572 8.21778 1.51324 9.80275 1.51324 11.5352C1.51324 12.77 1.91869 13.9311 2.65589 14.871L1.3658 15.8293C0.573309 16.4191 0.0388421 17.3406 0.00198226 18.3358C-0.0348776 19.3863 0.4443 20.3631 1.27365 20.9713L2.65589 22.0034C1.91869 22.9433 1.51324 24.1044 1.51324 25.3392C1.51324 27.0716 2.30572 28.6566 3.68797 29.6887L11.9262 35.8442C12.7739 36.4709 13.7691 36.7842 14.7828 36.7842C15.778 36.7842 16.7917 36.4709 17.6394 35.8442L31.683 25.3392L26.8728 21.7638ZM5.01492 8.95497L13.2531 2.79937C14.1377 2.1359 15.391 2.1359 16.2756 2.79937L27.9233 11.5167L25.1588 13.5809L16.3678 7.0014C15.8886 6.65123 15.3357 6.46693 14.7644 6.46693C14.193 6.46693 13.6401 6.65123 13.161 7.0014L4.4436 13.5256C4.00128 12.9727 3.74326 12.2724 3.74326 11.5167C3.74326 10.5031 4.20401 9.56316 5.01492 8.95497ZM16.2756 34.0565C15.391 34.72 14.1377 34.72 13.2531 34.0565L5.01492 27.9009C4.20401 27.2928 3.72483 26.3528 3.72483 25.3392C3.72483 24.602 3.98285 23.9017 4.42517 23.3303L13.1425 29.8545C14.0825 30.5549 15.4094 30.5549 16.3493 29.8545L25.1588 23.2566L27.9233 25.3208L16.2756 34.0565Z" fill="url(#paint0_linear)"/>
<path d="M21.5465 20.4553L23.4448 21.8744L15.1698 28.0669C15.096 28.1221 15.0039 28.159 14.8933 28.159V8.69699C14.9855 8.69699 15.0776 8.71542 15.1698 8.78914L23.4448 14.9816L21.5465 16.4007C20.1827 17.4144 20.1827 19.4416 21.5465 20.4553Z" fill="url(#paint1_radial)"/>
<defs>
<linearGradient id="paint0_linear" x1="32.9116" y1="17.6032" x2="-18.5504" y2="19.9424" gradientUnits="userSpaceOnUse">
<stop offset="0.1268" stop-color="#C31432"/>
<stop offset="0.232" stop-color="#BC1432"/>
<stop offset="0.3879" stop-color="#A81233"/>
<stop offset="0.5753" stop-color="#871134"/>
<stop offset="0.787" stop-color="#590E35"/>
<stop offset="1" stop-color="#240B36"/>
</linearGradient>
<radialGradient id="paint1_radial" cx="0" cy="0" r="1" gradientUnits="userSpaceOnUse" gradientTransform="translate(23.0603 18.315) scale(12.5848)">
<stop offset="0.1582" stop-color="#240B36"/>
<stop offset="0.2027" stop-color="#330C36" stop-opacity="0.9379"/>
<stop offset="0.3673" stop-color="#660F34" stop-opacity="0.7076"/>
<stop offset="0.5221" stop-color="#8E1133" stop-opacity="0.4911"/>
<stop offset="0.6627" stop-color="#AB1333" stop-opacity="0.2945"/>
<stop offset="0.7844" stop-color="#BD1432" stop-opacity="0.1243"/>
<stop offset="0.8732" stop-color="#C31432" stop-opacity="0"/>
</radialGradient>
</defs>
</svg>
