<svg width="36" height="36" viewBox="0 0 36 36" fill="none" xmlns="http://www.w3.org/2000/svg">
<rect width="36" height="36" rx="18" fill="url(#paint0_linear)"/>
<path d="M12 25C12 26.1 12.9 27 14 27H22C23.1 27 24 26.1 24 25V13H12V25ZM15.17 18.59C14.983 18.403 14.878 18.1494 14.878 17.885C14.878 17.6206 14.983 17.367 15.17 17.18C15.357 16.993 15.6106 16.888 15.875 16.888C16.1394 16.888 16.393 16.993 16.58 17.18L18 18.59L19.41 17.18C19.597 16.993 19.8506 16.888 20.115 16.888C20.3794 16.888 20.633 16.993 20.82 17.18C21.007 17.367 21.112 17.6206 21.112 17.885C21.112 18.1494 21.007 18.403 20.82 18.59L19.41 20L20.82 21.41C20.9126 21.5026 20.986 21.6125 21.0361 21.7335C21.0862 21.8544 21.112 21.9841 21.112 22.115C21.112 22.2459 21.0862 22.3756 21.0361 22.4965C20.986 22.6175 20.9126 22.7274 20.82 22.82C20.7274 22.9126 20.6175 22.986 20.4965 23.0361C20.3756 23.0862 20.2459 23.112 20.115 23.112C19.9841 23.112 19.8544 23.0862 19.7335 23.0361C19.6125 22.986 19.5026 22.9126 19.41 22.82L18 21.41L16.59 22.82C16.4974 22.9126 16.3875 22.986 16.2665 23.0361C16.1456 23.0862 16.0159 23.112 15.885 23.112C15.7541 23.112 15.6244 23.0862 15.5035 23.0361C15.3825 22.986 15.2726 22.9126 15.18 22.82C15.0874 22.7274 15.014 22.6175 14.9639 22.4965C14.9138 22.3756 14.888 22.2459 14.888 22.115C14.888 21.9841 14.9138 21.8544 14.9639 21.7335C15.014 21.6125 15.0874 21.5026 15.18 21.41L16.59 20L15.17 18.59ZM24 10H21.5L20.79 9.29C20.61 9.11 20.35 9 20.09 9H15.91C15.65 9 15.39 9.11 15.21 9.29L14.5 10H12C11.45 10 11 10.45 11 11C11 11.55 11.45 12 12 12H24C24.55 12 25 11.55 25 11C25 10.45 24.55 10 24 10Z" fill="white"/>
<defs>
<linearGradient id="paint0_linear" x1="5.31818" y1="6.13636" x2="28.2273" y2="47.0455" gradientUnits="userSpaceOnUse">
<stop stop-color="#BE1433"/>
<stop offset="1" stop-color="#5D0F35"/>
</linearGradient>
</defs>
</svg>
